<?xml version="1.0" ?><svg style="enable-background:new 0 0 48 48;" version="1.1" viewBox="0 0 48 48" xml:space="preserve" xmlns="http://www.w3.org/2000/svg" xmlns:xlink="http://www.w3.org/1999/xlink"><g id="Icons"><g id="Icons_12_"><g><path d="M34.955,10.525h-21.91c-1.39,0-2.52,1.13-2.52,2.5201V34.955c0,1.39,1.13,2.52,2.52,2.52h21.91     c1.39,0,2.52-1.13,2.52-2.52V13.0451C37.475,11.655,36.345,10.525,34.955,10.525z M32.175,19.8151c0,0-0.02,1.88-0.3,3.06     c-0.28,1.17-1.22,4.44-4.02,6.74c-2.81,2.3-6.22,2.8-8.16,2.6699c-1.94-0.13-4.31-0.87-5.85-1.82c0,0,3.51,0.38,6.1-1.76     c0,0-2.61,0.1201-3.85-2.8899c0,0,0.89,0.1599,1.85-0.1101c0,0-3.3-0.6-3.34-4.1499c0,0,1.09,0.5299,1.89,0.4799     c0,0-3.15-2.4099-1.23-5.5199c0,0,3.15,4.18,8.62,4.34c-1.32-3.67,4.63-7.1501,7.09-3.81c0,0,0.95-0.03,2.68-0.97     c0,0-0.41,1.3199-1.74,2.1999c0,0,1-0.0099,2.23-0.5399C34.055,17.8751,33.305,19.025,32.175,19.8151z" style="fill:#4AA0EC;"/></g></g></g></svg>